ISO-10303-21;
HEADER;
/* Generated by software containing ST-Developer
 * from STEP Tools, Inc. (www.steptools.com) 
 */
/* OPTION: using custom renumber hook */

FILE_DESCRIPTION(
/* description */ ('STEP AP242 Edition 2',
'CAx-IF Rec.Pracs.---Representation and Presentation of Product Manufa
cturing Information (PMI)---4.0---2014-10-13',
'CAx-IF Rec.Pracs.---3D Tessellated Geometry---0.4---2014-09-14','2;1',
'CAx-IF Rec.Pracs.---User Defined Attributes---1.5---2016-08-15'),
/* implementation_level */ '2;1');

FILE_NAME(
/* name */ 'Part Studio 1',
/* time_stamp */ '2026-07-26T21:14:21Z',
/* author */ (''),
/* organization */ (''),
/* preprocessor_version */ 'ST-DEVELOPER v20',
/* originating_system */ 'ONSHAPE BY PTC INC, 1.218',
/* authorisation */ '  ');

FILE_SCHEMA (('AP242_MANAGED_MODEL_BASED_3D_ENGINEERING_MIM_LF { 1 0 10303 442 3 1 4 }'));
ENDSEC;

DATA;
#10=CONICAL_SURFACE('',#794,0.00301235145871583,0.785398163397448);
#11=CONICAL_SURFACE('',#795,0.00380610145871583,0.785398163397448);
#12=LINE('',#1043,#78);
#13=LINE('',#1046,#79);
#14=LINE('',#1048,#80);
#15=LINE('',#1050,#81);
#16=LINE('',#1052,#82);
#17=LINE('',#1055,#83);
#18=LINE('',#1057,#84);
#19=LINE('',#1059,#85);
#20=LINE('',#1061,#86);
#21=LINE('',#1064,#87);
#22=LINE('',#1066,#88);
#23=LINE('',#1068,#89);
#24=LINE('',#1072,#90);
#25=LINE('',#1073,#91);
#26=LINE('',#1075,#92);
#27=LINE('',#1076,#93);
#28=LINE('',#1078,#94);
#29=LINE('',#1080,#95);
#30=LINE('',#1081,#96);
#31=LINE('',#1083,#97);
#32=LINE('',#1084,#98);
#33=LINE('',#1086,#99);
#34=LINE('',#1092,#100);
#35=LINE('',#1095,#101);
#36=LINE('',#1113,#102);
#37=LINE('',#1116,#103);
#38=LINE('',#1118,#104);
#39=LINE('',#1120,#105);
#40=LINE('',#1122,#106);
#41=LINE('',#1124,#107);
#42=LINE('',#1126,#108);
#43=LINE('',#1128,#109);
#44=LINE('',#1130,#110);
#45=LINE('',#1132,#111);
#46=LINE('',#1134,#112);
#47=LINE('',#1135,#113);
#48=LINE('',#1145,#114);
#49=LINE('',#1148,#115);
#50=LINE('',#1150,#116);
#51=LINE('',#1152,#117);
#52=LINE('',#1154,#118);
#53=LINE('',#1156,#119);
#54=LINE('',#1158,#120);
#55=LINE('',#1160,#121);
#56=LINE('',#1162,#122);
#57=LINE('',#1164,#123);
#58=LINE('',#1166,#124);
#59=LINE('',#1169,#125);
#60=LINE('',#1171,#126);
#61=LINE('',#1173,#127);
#62=LINE('',#1175,#128);
#63=LINE('',#1177,#129);
#64=LINE('',#1179,#130);
#65=LINE('',#1181,#131);
#66=LINE('',#1183,#132);
#67=LINE('',#1185,#133);
#68=LINE('',#1187,#134);
#69=LINE('',#1188,#135);
#70=LINE('',#1190,#136);
#71=LINE('',#1191,#137);
#72=LINE('',#1193,#138);
#73=LINE('',#1195,#139);
#74=LINE('',#1196,#140);
#75=LINE('',#1199,#141);
#76=LINE('',#1201,#142);
#77=LINE('',#1202,#143);
#78=VECTOR('',#859,1.);
#79=VECTOR('',#860,1.);
#80=VECTOR('',#861,1.);
#81=VECTOR('',#862,1.);
#82=VECTOR('',#865,1.);
#83=VECTOR('',#866,1.);
#84=VECTOR('',#867,1.);
#85=VECTOR('',#868,1.);
#86=VECTOR('',#871,1.);
#87=VECTOR('',#872,1.);
#88=VECTOR('',#873,1.);
#89=VECTOR('',#874,1.);
#90=VECTOR('',#879,1.);
#91=VECTOR('',#880,1.);
#92=VECTOR('',#881,1.);
#93=VECTOR('',#882,1.);
#94=VECTOR('',#883,1.);
#95=VECTOR('',#886,1.);
#96=VECTOR('',#887,1.);
#97=VECTOR('',#888,1.);
#98=VECTOR('',#889,1.);
#99=VECTOR('',#890,1.);
#100=VECTOR('',#899,1.);
#101=VECTOR('',#904,1.);
#102=VECTOR('',#931,1.);
#103=VECTOR('',#932,1.);
#104=VECTOR('',#933,1.);
#105=VECTOR('',#934,1.);
#106=VECTOR('',#937,1.);
#107=VECTOR('',#938,1.);
#108=VECTOR('',#939,1.);
#109=VECTOR('',#942,1.);
#110=VECTOR('',#943,1.);
#111=VECTOR('',#944,1.);
#112=VECTOR('',#947,1.);
#113=VECTOR('',#948,1.);
#114=VECTOR('',#963,1.);
#115=VECTOR('',#964,1.);
#116=VECTOR('',#965,1.);
#117=VECTOR('',#966,1.);
#118=VECTOR('',#967,1.);
#119=VECTOR('',#968,1.);
#120=VECTOR('',#969,1.);
#121=VECTOR('',#970,1.);
#122=VECTOR('',#971,1.);
#123=VECTOR('',#972,1.);
#124=VECTOR('',#975,1.);
#125=VECTOR('',#976,1.);
#126=VECTOR('',#977,1.);
#127=VECTOR('',#978,1.);
#128=VECTOR('',#979,1.);
#129=VECTOR('',#980,1.);
#130=VECTOR('',#981,1.);
#131=VECTOR('',#982,1.);
#132=VECTOR('',#983,1.);
#133=VECTOR('',#984,1.);
#134=VECTOR('',#987,1.);
#135=VECTOR('',#988,1.);
#136=VECTOR('',#991,1.);
#137=VECTOR('',#992,1.);
#138=VECTOR('',#995,1.);
#139=VECTOR('',#998,1.);
#140=VECTOR('',#999,1.);
#141=VECTOR('',#1004,1.);
#142=VECTOR('',#1007,1.);
#143=VECTOR('',#1008,1.);
#144=SHAPE_REPRESENTATION_RELATIONSHIP('','',#748,#150);
#145=SHAPE_REPRESENTATION_RELATIONSHIP('','',#749,#151);
#146=SHAPE_REPRESENTATION_RELATIONSHIP('','',#750,#152);
#147=SHAPE_REPRESENTATION_RELATIONSHIP('','',#751,#153);
#148=SHAPE_REPRESENTATION_RELATIONSHIP('','',#752,#154);
#149=SHAPE_REPRESENTATION_RELATIONSHIP('','',#753,#155);
#150=ADVANCED_BREP_SHAPE_REPRESENTATION('',(#736),#1212);
#151=ADVANCED_BREP_SHAPE_REPRESENTATION('',(#737),#1213);
#152=ADVANCED_BREP_SHAPE_REPRESENTATION('',(#738),#1214);
#153=ADVANCED_BREP_SHAPE_REPRESENTATION('',(#739),#1215);
#154=ADVANCED_BREP_SHAPE_REPRESENTATION('',(#740),#1216);
#155=ADVANCED_BREP_SHAPE_REPRESENTATION('',(#741),#1217);
#156=PLANE('',#758);
#157=PLANE('',#760);
#158=PLANE('',#767);
#159=PLANE('',#769);
#160=PLANE('',#773);
#161=PLANE('',#774);
#162=PLANE('',#775);
#163=PLANE('',#777);
#164=PLANE('',#778);
#165=PLANE('',#781);
#166=PLANE('',#782);
#167=PLANE('',#783);
#168=PLANE('',#784);
#169=PLANE('',#785);
#170=PLANE('',#790);
#171=PLANE('',#792);
#172=PLANE('',#797);
#173=PLANE('',#798);
#174=PLANE('',#799);
#175=PLANE('',#800);
#176=PLANE('',#801);
#177=PLANE('',#803);
#178=PLANE('',#807);
#179=PLANE('',#808);
#180=PLANE('',#809);
#181=PLANE('',#810);
#182=PLANE('',#811);
#183=PLANE('',#812);
#184=PLANE('',#813);
#185=PLANE('',#814);
#186=PLANE('',#815);
#187=PLANE('',#816);
#188=PLANE('',#817);
#189=PLANE('',#818);
#190=ORIENTED_EDGE('',*,*,#354,.F.);
#191=ORIENTED_EDGE('',*,*,#355,.T.);
#192=ORIENTED_EDGE('',*,*,#356,.F.);
#193=ORIENTED_EDGE('',*,*,#354,.T.);
#194=ORIENTED_EDGE('',*,*,#357,.T.);
#195=ORIENTED_EDGE('',*,*,#355,.F.);
#196=ORIENTED_EDGE('',*,*,#356,.T.);
#197=ORIENTED_EDGE('',*,*,#357,.F.);
#198=ORIENTED_EDGE('',*,*,#358,.F.);
#199=ORIENTED_EDGE('',*,*,#359,.T.);
#200=ORIENTED_EDGE('',*,*,#360,.F.);
#201=ORIENTED_EDGE('',*,*,#358,.T.);
#202=ORIENTED_EDGE('',*,*,#361,.T.);
#203=ORIENTED_EDGE('',*,*,#359,.F.);
#204=ORIENTED_EDGE('',*,*,#360,.T.);
#205=ORIENTED_EDGE('',*,*,#361,.F.);
#206=ORIENTED_EDGE('',*,*,#362,.F.);
#207=ORIENTED_EDGE('',*,*,#363,.T.);
#208=ORIENTED_EDGE('',*,*,#364,.T.);
#209=ORIENTED_EDGE('',*,*,#365,.F.);
#210=ORIENTED_EDGE('',*,*,#366,.F.);
#211=ORIENTED_EDGE('',*,*,#367,.T.);
#212=ORIENTED_EDGE('',*,*,#368,.T.);
#213=ORIENTED_EDGE('',*,*,#369,.F.);
#214=ORIENTED_EDGE('',*,*,#370,.F.);
#215=ORIENTED_EDGE('',*,*,#371,.F.);
#216=ORIENTED_EDGE('',*,*,#372,.T.);
#217=ORIENTED_EDGE('',*,*,#373,.T.);
#218=ORIENTED_EDGE('',*,*,#374,.T.);
#219=ORIENTED_EDGE('',*,*,#375,.T.);
#220=ORIENTED_EDGE('',*,*,#363,.F.);
#221=ORIENTED_EDGE('',*,*,#376,.T.);
#222=ORIENTED_EDGE('',*,*,#377,.T.);
#223=ORIENTED_EDGE('',*,*,#373,.F.);
#224=ORIENTED_EDGE('',*,*,#378,.F.);
#225=ORIENTED_EDGE('',*,*,#379,.T.);
#226=ORIENTED_EDGE('',*,*,#366,.T.);
#227=ORIENTED_EDGE('',*,*,#380,.F.);
#228=ORIENTED_EDGE('',*,*,#368,.F.);
#229=ORIENTED_EDGE('',*,*,#381,.T.);
#230=ORIENTED_EDGE('',*,*,#382,.T.);
#231=ORIENTED_EDGE('',*,*,#371,.T.);
#232=ORIENTED_EDGE('',*,*,#383,.F.);
#233=ORIENTED_EDGE('',*,*,#384,.F.);
#234=ORIENTED_EDGE('',*,*,#365,.T.);
#235=ORIENTED_EDGE('',*,*,#374,.F.);
#236=ORIENTED_EDGE('',*,*,#385,.T.);
#237=ORIENTED_EDGE('',*,*,#375,.F.);
#238=ORIENTED_EDGE('',*,*,#369,.T.);
#239=ORIENTED_EDGE('',*,*,#380,.T.);
#240=ORIENTED_EDGE('',*,*,#364,.F.);
#241=ORIENTED_EDGE('',*,*,#385,.F.);
#242=ORIENTED_EDGE('',*,*,#372,.F.);
#243=ORIENTED_EDGE('',*,*,#382,.F.);
#244=ORIENTED_EDGE('',*,*,#386,.T.);
#245=ORIENTED_EDGE('',*,*,#378,.T.);
#246=ORIENTED_EDGE('',*,*,#381,.F.);
#247=ORIENTED_EDGE('',*,*,#367,.F.);
#248=ORIENTED_EDGE('',*,*,#379,.F.);
#249=ORIENTED_EDGE('',*,*,#386,.F.);
#250=ORIENTED_EDGE('',*,*,#370,.T.);
#251=ORIENTED_EDGE('',*,*,#377,.F.);
#252=ORIENTED_EDGE('',*,*,#387,.F.);
#253=ORIENTED_EDGE('',*,*,#383,.T.);
#254=ORIENTED_EDGE('',*,*,#362,.T.);
#255=ORIENTED_EDGE('',*,*,#384,.T.);
#256=ORIENTED_EDGE('',*,*,#387,.T.);
#257=ORIENTED_EDGE('',*,*,#376,.F.);
#258=ORIENTED_EDGE('',*,*,#388,.T.);
#259=ORIENTED_EDGE('',*,*,#389,.T.);
#260=ORIENTED_EDGE('',*,*,#390,.T.);
#261=ORIENTED_EDGE('',*,*,#391,.T.);
#262=ORIENTED_EDGE('',*,*,#388,.F.);
#263=ORIENTED_EDGE('',*,*,#390,.F.);
#264=ORIENTED_EDGE('',*,*,#391,.F.);
#265=ORIENTED_EDGE('',*,*,#389,.F.);
#266=ORIENTED_EDGE('',*,*,#392,.F.);
#267=ORIENTED_EDGE('',*,*,#393,.F.);
#268=ORIENTED_EDGE('',*,*,#394,.T.);
#269=ORIENTED_EDGE('',*,*,#395,.T.);
#270=ORIENTED_EDGE('',*,*,#396,.T.);
#271=ORIENTED_EDGE('',*,*,#397,.F.);
#272=ORIENTED_EDGE('',*,*,#398,.F.);
#273=ORIENTED_EDGE('',*,*,#393,.T.);
#274=ORIENTED_EDGE('',*,*,#399,.T.);
#275=ORIENTED_EDGE('',*,*,#400,.F.);
#276=ORIENTED_EDGE('',*,*,#401,.F.);
#277=ORIENTED_EDGE('',*,*,#397,.T.);
#278=ORIENTED_EDGE('',*,*,#402,.F.);
#279=ORIENTED_EDGE('',*,*,#395,.F.);
#280=ORIENTED_EDGE('',*,*,#403,.T.);
#281=ORIENTED_EDGE('',*,*,#400,.T.);
#282=ORIENTED_EDGE('',*,*,#404,.F.);
#283=ORIENTED_EDGE('',*,*,#394,.F.);
#284=ORIENTED_EDGE('',*,*,#398,.T.);
#285=ORIENTED_EDGE('',*,*,#401,.T.);
#286=ORIENTED_EDGE('',*,*,#403,.F.);
#287=ORIENTED_EDGE('',*,*,#405,.T.);
#288=ORIENTED_EDGE('',*,*,#392,.T.);
#289=ORIENTED_EDGE('',*,*,#402,.T.);
#290=ORIENTED_EDGE('',*,*,#399,.F.);
#291=ORIENTED_EDGE('',*,*,#396,.F.);
#292=ORIENTED_EDGE('',*,*,#404,.T.);
#293=ORIENTED_EDGE('',*,*,#405,.F.);
#294=ORIENTED_EDGE('',*,*,#406,.T.);
#295=ORIENTED_EDGE('',*,*,#407,.T.);
#296=ORIENTED_EDGE('',*,*,#408,.F.);
#297=ORIENTED_EDGE('',*,*,#409,.F.);
#298=ORIENTED_EDGE('',*,*,#410,.T.);
#299=ORIENTED_EDGE('',*,*,#411,.F.);
#300=ORIENTED_EDGE('',*,*,#412,.F.);
#301=ORIENTED_EDGE('',*,*,#413,.T.);
#302=ORIENTED_EDGE('',*,*,#414,.T.);
#303=ORIENTED_EDGE('',*,*,#415,.T.);
#304=ORIENTED_EDGE('',*,*,#416,.T.);
#305=ORIENTED_EDGE('',*,*,#417,.T.);
#306=ORIENTED_EDGE('',*,*,#418,.F.);
#307=ORIENTED_EDGE('',*,*,#419,.T.);
#308=ORIENTED_EDGE('',*,*,#420,.F.);
#309=ORIENTED_EDGE('',*,*,#421,.T.);
#310=ORIENTED_EDGE('',*,*,#422,.T.);
#311=ORIENTED_EDGE('',*,*,#423,.T.);
#312=ORIENTED_EDGE('',*,*,#424,.F.);
#313=ORIENTED_EDGE('',*,*,#425,.F.);
#314=ORIENTED_EDGE('',*,*,#426,.F.);
#315=ORIENTED_EDGE('',*,*,#411,.T.);
#316=ORIENTED_EDGE('',*,*,#427,.T.);
#317=ORIENTED_EDGE('',*,*,#423,.F.);
#318=ORIENTED_EDGE('',*,*,#418,.T.);
#319=ORIENTED_EDGE('',*,*,#428,.T.);
#320=ORIENTED_EDGE('',*,*,#406,.F.);
#321=ORIENTED_EDGE('',*,*,#429,.T.);
#322=ORIENTED_EDGE('',*,*,#412,.T.);
#323=ORIENTED_EDGE('',*,*,#426,.T.);
#324=ORIENTED_EDGE('',*,*,#422,.F.);
#325=ORIENTED_EDGE('',*,*,#430,.T.);
#326=ORIENTED_EDGE('',*,*,#420,.T.);
#327=ORIENTED_EDGE('',*,*,#431,.T.);
#328=ORIENTED_EDGE('',*,*,#414,.F.);
#329=ORIENTED_EDGE('',*,*,#432,.T.);
#330=ORIENTED_EDGE('',*,*,#430,.F.);
#331=ORIENTED_EDGE('',*,*,#421,.F.);
#332=ORIENTED_EDGE('',*,*,#432,.F.);
#333=ORIENTED_EDGE('',*,*,#413,.F.);
#334=ORIENTED_EDGE('',*,*,#427,.F.);
#335=ORIENTED_EDGE('',*,*,#410,.F.);
#336=ORIENTED_EDGE('',*,*,#433,.F.);
#337=ORIENTED_EDGE('',*,*,#424,.T.);
#338=ORIENTED_EDGE('',*,*,#408,.T.);
#339=ORIENTED_EDGE('',*,*,#434,.T.);
#340=ORIENTED_EDGE('',*,*,#416,.F.);
#341=ORIENTED_EDGE('',*,*,#435,.F.);
#342=ORIENTED_EDGE('',*,*,#425,.T.);
#343=ORIENTED_EDGE('',*,*,#433,.T.);
#344=ORIENTED_EDGE('',*,*,#409,.T.);
#345=ORIENTED_EDGE('',*,*,#435,.T.);
#346=ORIENTED_EDGE('',*,*,#407,.F.);
#347=ORIENTED_EDGE('',*,*,#428,.F.);
#348=ORIENTED_EDGE('',*,*,#417,.F.);
#349=ORIENTED_EDGE('',*,*,#434,.F.);
#350=ORIENTED_EDGE('',*,*,#415,.F.);
#351=ORIENTED_EDGE('',*,*,#431,.F.);
#352=ORIENTED_EDGE('',*,*,#419,.F.);
#353=ORIENTED_EDGE('',*,*,#429,.F.);
#354=EDGE_CURVE('',#436,#436,#496,.T.);
#355=EDGE_CURVE('',#437,#437,#497,.T.);
#356=EDGE_CURVE('',#438,#438,#498,.T.);
#357=EDGE_CURVE('',#439,#439,#499,.T.);
#358=EDGE_CURVE('',#440,#440,#500,.T.);
#359=EDGE_CURVE('',#441,#441,#501,.T.);
#360=EDGE_CURVE('',#442,#442,#502,.T.);
#361=EDGE_CURVE('',#443,#443,#503,.T.);
#362=EDGE_CURVE('',#444,#445,#12,.T.);
#363=EDGE_CURVE('',#444,#446,#13,.T.);
#364=EDGE_CURVE('',#446,#447,#14,.T.);
#365=EDGE_CURVE('',#445,#447,#15,.T.);
#366=EDGE_CURVE('',#448,#449,#16,.T.);
#367=EDGE_CURVE('',#448,#450,#17,.T.);
#368=EDGE_CURVE('',#450,#451,#18,.T.);
#369=EDGE_CURVE('',#449,#451,#19,.T.);
#370=EDGE_CURVE('',#452,#453,#20,.T.);
#371=EDGE_CURVE('',#454,#452,#21,.T.);
#372=EDGE_CURVE('',#454,#455,#22,.T.);
#373=EDGE_CURVE('',#455,#453,#23,.T.);
#374=EDGE_CURVE('',#456,#456,#504,.T.);
#375=EDGE_CURVE('',#449,#446,#24,.T.);
#376=EDGE_CURVE('',#444,#457,#25,.T.);
#377=EDGE_CURVE('',#457,#453,#26,.T.);
#378=EDGE_CURVE('',#458,#455,#27,.T.);
#379=EDGE_CURVE('',#458,#448,#28,.T.);
#380=EDGE_CURVE('',#451,#447,#29,.T.);
#381=EDGE_CURVE('',#450,#459,#30,.T.);
#382=EDGE_CURVE('',#459,#454,#31,.T.);
#383=EDGE_CURVE('',#460,#452,#32,.T.);
#384=EDGE_CURVE('',#445,#460,#33,.T.);
#385=EDGE_CURVE('',#461,#461,#505,.T.);
#386=EDGE_CURVE('',#459,#458,#34,.T.);
#387=EDGE_CURVE('',#460,#457,#35,.T.);
#388=EDGE_CURVE('',#462,#462,#506,.F.);
#389=EDGE_CURVE('',#463,#463,#507,.T.);
#390=EDGE_CURVE('',#464,#464,#508,.T.);
#391=EDGE_CURVE('',#465,#465,#509,.F.);
#392=EDGE_CURVE('',#466,#467,#36,.T.);
#393=EDGE_CURVE('',#468,#466,#37,.T.);
#394=EDGE_CURVE('',#468,#469,#38,.T.);
#395=EDGE_CURVE('',#469,#467,#39,.T.);
#396=EDGE_CURVE('',#466,#470,#40,.T.);
#397=EDGE_CURVE('',#471,#470,#41,.T.);
#398=EDGE_CURVE('',#468,#471,#42,.T.);
#399=EDGE_CURVE('',#470,#472,#43,.T.);
#400=EDGE_CURVE('',#473,#472,#44,.T.);
#401=EDGE_CURVE('',#471,#473,#45,.T.);
#402=EDGE_CURVE('',#467,#472,#46,.T.);
#403=EDGE_CURVE('',#469,#473,#47,.T.);
#404=EDGE_CURVE('',#474,#474,#510,.T.);
#405=EDGE_CURVE('',#475,#475,#511,.T.);
#406=EDGE_CURVE('',#476,#477,#48,.T.);
#407=EDGE_CURVE('',#477,#478,#49,.F.);
#408=EDGE_CURVE('',#479,#478,#50,.T.);
#409=EDGE_CURVE('',#480,#479,#51,.T.);
#410=EDGE_CURVE('',#480,#481,#52,.T.);
#411=EDGE_CURVE('',#482,#481,#53,.T.);
#412=EDGE_CURVE('',#483,#482,#54,.T.);
#413=EDGE_CURVE('',#483,#484,#55,.T.);
#414=EDGE_CURVE('',#484,#485,#56,.T.);
#415=EDGE_CURVE('',#485,#476,#57,.T.);
#416=EDGE_CURVE('',#486,#487,#58,.T.);
#417=EDGE_CURVE('',#487,#488,#59,.F.);
#418=EDGE_CURVE('',#489,#488,#60,.T.);
#419=EDGE_CURVE('',#489,#490,#61,.T.);
#420=EDGE_CURVE('',#491,#490,#62,.T.);
#421=EDGE_CURVE('',#491,#492,#63,.T.);
#422=EDGE_CURVE('',#492,#493,#64,.T.);
#423=EDGE_CURVE('',#493,#494,#65,.T.);
#424=EDGE_CURVE('',#495,#494,#66,.T.);
#425=EDGE_CURVE('',#486,#495,#67,.T.);
#426=EDGE_CURVE('',#482,#493,#68,.T.);
#427=EDGE_CURVE('',#481,#494,#69,.T.);
#428=EDGE_CURVE('',#488,#477,#70,.T.);
#429=EDGE_CURVE('',#476,#489,#71,.T.);
#430=EDGE_CURVE('',#492,#483,#72,.T.);
#431=EDGE_CURVE('',#490,#485,#73,.T.);
#432=EDGE_CURVE('',#484,#491,#74,.T.);
#433=EDGE_CURVE('',#495,#480,#75,.T.);
#434=EDGE_CURVE('',#478,#487,#76,.T.);
#435=EDGE_CURVE('',#479,#486,#77,.T.);
#436=VERTEX_POINT('',#1018);
#437=VERTEX_POINT('',#1020);
#438=VERTEX_POINT('',#1023);
#439=VERTEX_POINT('',#1026);
#440=VERTEX_POINT('',#1031);
#441=VERTEX_POINT('',#1033);
#442=VERTEX_POINT('',#1036);
#443=VERTEX_POINT('',#1039);
#444=VERTEX_POINT('',#1044);
#445=VERTEX_POINT('',#1045);
#446=VERTEX_POINT('',#1047);
#447=VERTEX_POINT('',#1049);
#448=VERTEX_POINT('',#1053);
#449=VERTEX_POINT('',#1054);
#450=VERTEX_POINT('',#1056);
#451=VERTEX_POINT('',#1058);
#452=VERTEX_POINT('',#1062);
#453=VERTEX_POINT('',#1063);
#454=VERTEX_POINT('',#1065);
#455=VERTEX_POINT('',#1067);
#456=VERTEX_POINT('',#1070);
#457=VERTEX_POINT('',#1074);
#458=VERTEX_POINT('',#1077);
#459=VERTEX_POINT('',#1082);
#460=VERTEX_POINT('',#1085);
#461=VERTEX_POINT('',#1089);
#462=VERTEX_POINT('',#1100);
#463=VERTEX_POINT('',#1102);
#464=VERTEX_POINT('',#1105);
#465=VERTEX_POINT('',#1108);
#466=VERTEX_POINT('',#1114);
#467=VERTEX_POINT('',#1115);
#468=VERTEX_POINT('',#1117);
#469=VERTEX_POINT('',#1119);
#470=VERTEX_POINT('',#1123);
#471=VERTEX_POINT('',#1125);
#472=VERTEX_POINT('',#1129);
#473=VERTEX_POINT('',#1131);
#474=VERTEX_POINT('',#1138);
#475=VERTEX_POINT('',#1141);
#476=VERTEX_POINT('',#1146);
#477=VERTEX_POINT('',#1147);
#478=VERTEX_POINT('',#1149);
#479=VERTEX_POINT('',#1151);
#480=VERTEX_POINT('',#1153);
#481=VERTEX_POINT('',#1155);
#482=VERTEX_POINT('',#1157);
#483=VERTEX_POINT('',#1159);
#484=VERTEX_POINT('',#1161);
#485=VERTEX_POINT('',#1163);
#486=VERTEX_POINT('',#1167);
#487=VERTEX_POINT('',#1168);
#488=VERTEX_POINT('',#1170);
#489=VERTEX_POINT('',#1172);
#490=VERTEX_POINT('',#1174);
#491=VERTEX_POINT('',#1176);
#492=VERTEX_POINT('',#1178);
#493=VERTEX_POINT('',#1180);
#494=VERTEX_POINT('',#1182);
#495=VERTEX_POINT('',#1184);
#496=CIRCLE('',#756,0.0126971236744768);
#497=CIRCLE('',#757,0.0126971236744768);
#498=CIRCLE('',#759,0.004064);
#499=CIRCLE('',#761,0.004064);
#500=CIRCLE('',#765,0.0127041120699301);
#501=CIRCLE('',#766,0.0127041120699301);
#502=CIRCLE('',#768,0.004064);
#503=CIRCLE('',#770,0.004064);
#504=CIRCLE('',#776,0.0190744162354028);
#505=CIRCLE('',#780,0.0190744162354028);
#506=CIRCLE('',#788,0.00380610145871583);
#507=CIRCLE('',#789,0.00380610145871583);
#508=CIRCLE('',#791,0.00301235145871583);
#509=CIRCLE('',#793,0.00301235145871583);
#510=CIRCLE('',#802,0.00382538671830725);
#511=CIRCLE('',#804,0.00382538671830725);
#512=EDGE_LOOP('',(#190));
#513=EDGE_LOOP('',(#191));
#514=EDGE_LOOP('',(#192));
#515=EDGE_LOOP('',(#193));
#516=EDGE_LOOP('',(#194));
#517=EDGE_LOOP('',(#195));
#518=EDGE_LOOP('',(#196));
#519=EDGE_LOOP('',(#197));
#520=EDGE_LOOP('',(#198));
#521=EDGE_LOOP('',(#199));
#522=EDGE_LOOP('',(#200));
#523=EDGE_LOOP('',(#201));
#524=EDGE_LOOP('',(#202));
#525=EDGE_LOOP('',(#203));
#526=EDGE_LOOP('',(#204));
#527=EDGE_LOOP('',(#205));
#528=EDGE_LOOP('',(#206,#207,#208,#209));
#529=EDGE_LOOP('',(#210,#211,#212,#213));
#530=EDGE_LOOP('',(#214,#215,#216,#217));
#531=EDGE_LOOP('',(#218));
#532=EDGE_LOOP('',(#219,#220,#221,#222,#223,#224,#225,#226));
#533=EDGE_LOOP('',(#227,#228,#229,#230,#231,#232,#233,#234));
#534=EDGE_LOOP('',(#235));
#535=EDGE_LOOP('',(#236));
#536=EDGE_LOOP('',(#237,#238,#239,#240));
#537=EDGE_LOOP('',(#241));
#538=EDGE_LOOP('',(#242,#243,#244,#245));
#539=EDGE_LOOP('',(#246,#247,#248,#249));
#540=EDGE_LOOP('',(#250,#251,#252,#253));
#541=EDGE_LOOP('',(#254,#255,#256,#257));
#542=EDGE_LOOP('',(#258));
#543=EDGE_LOOP('',(#259));
#544=EDGE_LOOP('',(#260));
#545=EDGE_LOOP('',(#261));
#546=EDGE_LOOP('',(#262));
#547=EDGE_LOOP('',(#263));
#548=EDGE_LOOP('',(#264));
#549=EDGE_LOOP('',(#265));
#550=EDGE_LOOP('',(#266,#267,#268,#269));
#551=EDGE_LOOP('',(#270,#271,#272,#273));
#552=EDGE_LOOP('',(#274,#275,#276,#277));
#553=EDGE_LOOP('',(#278,#279,#280,#281));
#554=EDGE_LOOP('',(#282));
#555=EDGE_LOOP('',(#283,#284,#285,#286));
#556=EDGE_LOOP('',(#287));
#557=EDGE_LOOP('',(#288,#289,#290,#291));
#558=EDGE_LOOP('',(#292));
#559=EDGE_LOOP('',(#293));
#560=EDGE_LOOP('',(#294,#295,#296,#297,#298,#299,#300,#301,#302,#303));
#561=EDGE_LOOP('',(#304,#305,#306,#307,#308,#309,#310,#311,#312,#313));
#562=EDGE_LOOP('',(#314,#315,#316,#317));
#563=EDGE_LOOP('',(#318,#319,#320,#321));
#564=EDGE_LOOP('',(#322,#323,#324,#325));
#565=EDGE_LOOP('',(#326,#327,#328,#329));
#566=EDGE_LOOP('',(#330,#331,#332,#333));
#567=EDGE_LOOP('',(#334,#335,#336,#337));
#568=EDGE_LOOP('',(#338,#339,#340,#341));
#569=EDGE_LOOP('',(#342,#343,#344,#345));
#570=EDGE_LOOP('',(#346,#347,#348,#349));
#571=EDGE_LOOP('',(#350,#351,#352,#353));
#572=FACE_BOUND('',#512,.T.);
#573=FACE_BOUND('',#513,.T.);
#574=FACE_BOUND('',#514,.T.);
#575=FACE_BOUND('',#515,.T.);
#576=FACE_BOUND('',#516,.T.);
#577=FACE_BOUND('',#517,.T.);
#578=FACE_BOUND('',#518,.T.);
#579=FACE_BOUND('',#519,.T.);
#580=FACE_BOUND('',#520,.T.);
#581=FACE_BOUND('',#521,.T.);
#582=FACE_BOUND('',#522,.T.);
#583=FACE_BOUND('',#523,.T.);
#584=FACE_BOUND('',#524,.T.);
#585=FACE_BOUND('',#525,.T.);
#586=FACE_BOUND('',#526,.T.);
#587=FACE_BOUND('',#527,.T.);
#588=FACE_BOUND('',#528,.T.);
#589=FACE_BOUND('',#529,.T.);
#590=FACE_BOUND('',#530,.T.);
#591=FACE_BOUND('',#531,.T.);
#592=FACE_BOUND('',#532,.T.);
#593=FACE_BOUND('',#533,.T.);
#594=FACE_BOUND('',#534,.T.);
#595=FACE_BOUND('',#535,.T.);
#596=FACE_BOUND('',#536,.T.);
#597=FACE_BOUND('',#537,.T.);
#598=FACE_BOUND('',#538,.T.);
#599=FACE_BOUND('',#539,.T.);
#600=FACE_BOUND('',#540,.T.);
#601=FACE_BOUND('',#541,.T.);
#602=FACE_BOUND('',#542,.T.);
#603=FACE_BOUND('',#543,.T.);
#604=FACE_BOUND('',#544,.T.);
#605=FACE_BOUND('',#545,.T.);
#606=FACE_BOUND('',#546,.T.);
#607=FACE_BOUND('',#547,.T.);
#608=FACE_BOUND('',#548,.T.);
#609=FACE_BOUND('',#549,.T.);
#610=FACE_BOUND('',#550,.T.);
#611=FACE_BOUND('',#551,.T.);
#612=FACE_BOUND('',#552,.T.);
#613=FACE_BOUND('',#553,.T.);
#614=FACE_BOUND('',#554,.T.);
#615=FACE_BOUND('',#555,.T.);
#616=FACE_BOUND('',#556,.T.);
#617=FACE_BOUND('',#557,.T.);
#618=FACE_BOUND('',#558,.T.);
#619=FACE_BOUND('',#559,.T.);
#620=FACE_BOUND('',#560,.T.);
#621=FACE_BOUND('',#561,.T.);
#622=FACE_BOUND('',#562,.T.);
#623=FACE_BOUND('',#563,.T.);
#624=FACE_BOUND('',#564,.T.);
#625=FACE_BOUND('',#565,.T.);
#626=FACE_BOUND('',#566,.T.);
#627=FACE_BOUND('',#567,.T.);
#628=FACE_BOUND('',#568,.T.);
#629=FACE_BOUND('',#569,.T.);
#630=FACE_BOUND('',#570,.T.);
#631=FACE_BOUND('',#571,.T.);
#632=CYLINDRICAL_SURFACE('',#755,0.0126971236744768);
#633=CYLINDRICAL_SURFACE('',#762,0.004064);
#634=CYLINDRICAL_SURFACE('',#764,0.0127041120699301);
#635=CYLINDRICAL_SURFACE('',#771,0.004064);
#636=CYLINDRICAL_SURFACE('',#779,0.0190744162354028);
#637=CYLINDRICAL_SURFACE('',#787,0.00380610145871583);
#638=CYLINDRICAL_SURFACE('',#805,0.00382538671830725);
#639=ADVANCED_FACE('',(#572,#573),#632,.T.);
#640=ADVANCED_FACE('',(#574,#575),#156,.T.);
#641=ADVANCED_FACE('',(#576,#577),#157,.F.);
#642=ADVANCED_FACE('',(#578,#579),#633,.F.);
#643=ADVANCED_FACE('',(#580,#581),#634,.T.);
#644=ADVANCED_FACE('',(#582,#583),#158,.T.);
#645=ADVANCED_FACE('',(#584,#585),#159,.F.);
#646=ADVANCED_FACE('',(#586,#587),#635,.F.);
#647=ADVANCED_FACE('',(#588),#160,.F.);
#648=ADVANCED_FACE('',(#589),#161,.T.);
#649=ADVANCED_FACE('',(#590,#591),#162,.T.);
#650=ADVANCED_FACE('',(#592),#163,.F.);
#651=ADVANCED_FACE('',(#593),#164,.T.);
#652=ADVANCED_FACE('',(#594,#595),#636,.T.);
#653=ADVANCED_FACE('',(#596,#597),#165,.F.);
#654=ADVANCED_FACE('',(#598),#166,.T.);
#655=ADVANCED_FACE('',(#599),#167,.T.);
#656=ADVANCED_FACE('',(#600),#168,.F.);
#657=ADVANCED_FACE('',(#601),#169,.T.);
#658=ADVANCED_FACE('',(#602,#603),#637,.T.);
#659=ADVANCED_FACE('',(#604),#170,.T.);
#660=ADVANCED_FACE('',(#605),#171,.F.);
#661=ADVANCED_FACE('',(#606,#607),#10,.T.);
#662=ADVANCED_FACE('',(#608,#609),#11,.T.);
#663=ADVANCED_FACE('',(#610),#172,.T.);
#664=ADVANCED_FACE('',(#611),#173,.F.);
#665=ADVANCED_FACE('',(#612),#174,.F.);
#666=ADVANCED_FACE('',(#613),#175,.T.);
#667=ADVANCED_FACE('',(#614,#615),#176,.T.);
#668=ADVANCED_FACE('',(#616,#617),#177,.F.);
#669=ADVANCED_FACE('',(#618,#619),#638,.F.);
#670=ADVANCED_FACE('',(#620),#178,.F.);
#671=ADVANCED_FACE('',(#621),#179,.T.);
#672=ADVANCED_FACE('',(#622),#180,.T.);
#673=ADVANCED_FACE('',(#623),#181,.F.);
#674=ADVANCED_FACE('',(#624),#182,.T.);
#675=ADVANCED_FACE('',(#625),#183,.T.);
#676=ADVANCED_FACE('',(#626),#184,.T.);
#677=ADVANCED_FACE('',(#627),#185,.F.);
#678=ADVANCED_FACE('',(#628),#186,.F.);
#679=ADVANCED_FACE('',(#629),#187,.T.);
#680=ADVANCED_FACE('',(#630),#188,.F.);
#681=ADVANCED_FACE('',(#631),#189,.T.);
#682=CLOSED_SHELL('',(#639,#640,#641,#642));
#683=CLOSED_SHELL('',(#643,#644,#645,#646));
#684=CLOSED_SHELL('',(#647,#648,#649,#650,#651,#652,#653,#654,#655,#656,
#657));
#685=CLOSED_SHELL('',(#658,#659,#660,#661,#662));
#686=CLOSED_SHELL('',(#663,#664,#665,#666,#667,#668,#669));
#687=CLOSED_SHELL('',(#670,#671,#672,#673,#674,#675,#676,#677,#678,#679,
#680,#681));
#688=STYLED_ITEM('',(#694),#736);
#689=STYLED_ITEM('',(#695),#737);
#690=STYLED_ITEM('',(#696),#738);
#691=STYLED_ITEM('',(#697),#739);
#692=STYLED_ITEM('',(#698),#740);
#693=STYLED_ITEM('',(#699),#741);
#694=PRESENTATION_STYLE_ASSIGNMENT((#700));
#695=PRESENTATION_STYLE_ASSIGNMENT((#701));
#696=PRESENTATION_STYLE_ASSIGNMENT((#702));
#697=PRESENTATION_STYLE_ASSIGNMENT((#703));
#698=PRESENTATION_STYLE_ASSIGNMENT((#704));
#699=PRESENTATION_STYLE_ASSIGNMENT((#705));
#700=SURFACE_STYLE_USAGE(.BOTH.,#706);
#701=SURFACE_STYLE_USAGE(.BOTH.,#707);
#702=SURFACE_STYLE_USAGE(.BOTH.,#708);
#703=SURFACE_STYLE_USAGE(.BOTH.,#709);
#704=SURFACE_STYLE_USAGE(.BOTH.,#710);
#705=SURFACE_STYLE_USAGE(.BOTH.,#711);
#706=SURFACE_SIDE_STYLE('',(#712));
#707=SURFACE_SIDE_STYLE('',(#713));
#708=SURFACE_SIDE_STYLE('',(#714));
#709=SURFACE_SIDE_STYLE('',(#715));
#710=SURFACE_SIDE_STYLE('',(#716));
#711=SURFACE_SIDE_STYLE('',(#717));
#712=SURFACE_STYLE_FILL_AREA(#718);
#713=SURFACE_STYLE_FILL_AREA(#719);
#714=SURFACE_STYLE_FILL_AREA(#720);
#715=SURFACE_STYLE_FILL_AREA(#721);
#716=SURFACE_STYLE_FILL_AREA(#722);
#717=SURFACE_STYLE_FILL_AREA(#723);
#718=FILL_AREA_STYLE('',(#724));
#719=FILL_AREA_STYLE('',(#725));
#720=FILL_AREA_STYLE('',(#726));
#721=FILL_AREA_STYLE('',(#727));
#722=FILL_AREA_STYLE('',(#728));
#723=FILL_AREA_STYLE('',(#729));
#724=FILL_AREA_STYLE_COLOUR('',#730);
#725=FILL_AREA_STYLE_COLOUR('',#731);
#726=FILL_AREA_STYLE_COLOUR('',#732);
#727=FILL_AREA_STYLE_COLOUR('',#733);
#728=FILL_AREA_STYLE_COLOUR('',#734);
#729=FILL_AREA_STYLE_COLOUR('',#735);
#730=COLOUR_RGB('',0.231372549019608,0.380392156862745,0.705882352941177);
#731=COLOUR_RGB('',0.647058823529412,0.647058823529412,0.647058823529412);
#732=COLOUR_RGB('',0.972549019607843,0.529411764705882,0.00392156862745098);
#733=COLOUR_RGB('',0.768627450980392,0.886274509803922,0.952941176470588);
#734=COLOUR_RGB('',0.917647058823529,0.917647058823529,0.917647058823529);
#735=COLOUR_RGB('',0.615686274509804,0.811764705882353,0.929411764705882);
#736=MANIFOLD_SOLID_BREP('Part 3',#682);
#737=MANIFOLD_SOLID_BREP('Part 2',#683);
#738=MANIFOLD_SOLID_BREP('Part 6',#684);
#739=MANIFOLD_SOLID_BREP('Part 5',#685);
#740=MANIFOLD_SOLID_BREP('Part 4',#686);
#741=MANIFOLD_SOLID_BREP('Part 1',#687);
#742=SHAPE_DEFINITION_REPRESENTATION(#1242,#748);
#743=SHAPE_DEFINITION_REPRESENTATION(#1243,#749);
#744=SHAPE_DEFINITION_REPRESENTATION(#1244,#750);
#745=SHAPE_DEFINITION_REPRESENTATION(#1245,#751);
#746=SHAPE_DEFINITION_REPRESENTATION(#1246,#752);
#747=SHAPE_DEFINITION_REPRESENTATION(#1247,#753);
#748=SHAPE_REPRESENTATION('Part 3',(#754),#1212);
#749=SHAPE_REPRESENTATION('Part 2',(#763),#1213);
#750=SHAPE_REPRESENTATION('Part 6',(#772),#1214);
#751=SHAPE_REPRESENTATION('Part 5',(#786),#1215);
#752=SHAPE_REPRESENTATION('Part 4',(#796),#1216);
#753=SHAPE_REPRESENTATION('Part 1',(#806),#1217);
#754=AXIS2_PLACEMENT_3D('',#1015,#819,#820);
#755=AXIS2_PLACEMENT_3D('',#1016,#821,#822);
#756=AXIS2_PLACEMENT_3D('',#1017,#823,#824);
#757=AXIS2_PLACEMENT_3D('',#1019,#825,#826);
#758=AXIS2_PLACEMENT_3D('',#1021,#827,#828);
#759=AXIS2_PLACEMENT_3D('',#1022,#829,#830);
#760=AXIS2_PLACEMENT_3D('',#1024,#831,#832);
#761=AXIS2_PLACEMENT_3D('',#1025,#833,#834);
#762=AXIS2_PLACEMENT_3D('',#1027,#835,#836);
#763=AXIS2_PLACEMENT_3D('',#1028,#837,#838);
#764=AXIS2_PLACEMENT_3D('',#1029,#839,#840);
#765=AXIS2_PLACEMENT_3D('',#1030,#841,#842);
#766=AXIS2_PLACEMENT_3D('',#1032,#843,#844);
#767=AXIS2_PLACEMENT_3D('',#1034,#845,#846);
#768=AXIS2_PLACEMENT_3D('',#1035,#847,#848);
#769=AXIS2_PLACEMENT_3D('',#1037,#849,#850);
#770=AXIS2_PLACEMENT_3D('',#1038,#851,#852);
#771=AXIS2_PLACEMENT_3D('',#1040,#853,#854);
#772=AXIS2_PLACEMENT_3D('',#1041,#855,#856);
#773=AXIS2_PLACEMENT_3D('',#1042,#857,#858);
#774=AXIS2_PLACEMENT_3D('',#1051,#863,#864);
#775=AXIS2_PLACEMENT_3D('',#1060,#869,#870);
#776=AXIS2_PLACEMENT_3D('',#1069,#875,#876);
#777=AXIS2_PLACEMENT_3D('',#1071,#877,#878);
#778=AXIS2_PLACEMENT_3D('',#1079,#884,#885);
#779=AXIS2_PLACEMENT_3D('',#1087,#891,#892);
#780=AXIS2_PLACEMENT_3D('',#1088,#893,#894);
#781=AXIS2_PLACEMENT_3D('',#1090,#895,#896);
#782=AXIS2_PLACEMENT_3D('',#1091,#897,#898);
#783=AXIS2_PLACEMENT_3D('',#1093,#900,#901);
#784=AXIS2_PLACEMENT_3D('',#1094,#902,#903);
#785=AXIS2_PLACEMENT_3D('',#1096,#905,#906);
#786=AXIS2_PLACEMENT_3D('',#1097,#907,#908);
#787=AXIS2_PLACEMENT_3D('',#1098,#909,#910);
#788=AXIS2_PLACEMENT_3D('',#1099,#911,#912);
#789=AXIS2_PLACEMENT_3D('',#1101,#913,#914);
#790=AXIS2_PLACEMENT_3D('',#1103,#915,#916);
#791=AXIS2_PLACEMENT_3D('',#1104,#917,#918);
#792=AXIS2_PLACEMENT_3D('',#1106,#919,#920);
#793=AXIS2_PLACEMENT_3D('',#1107,#921,#922);
#794=AXIS2_PLACEMENT_3D('',#1109,#923,#924);
#795=AXIS2_PLACEMENT_3D('',#1110,#925,#926);
#796=AXIS2_PLACEMENT_3D('',#1111,#927,#928);
#797=AXIS2_PLACEMENT_3D('',#1112,#929,#930);
#798=AXIS2_PLACEMENT_3D('',#1121,#935,#936);
#799=AXIS2_PLACEMENT_3D('',#1127,#940,#941);
#800=AXIS2_PLACEMENT_3D('',#1133,#945,#946);
#801=AXIS2_PLACEMENT_3D('',#1136,#949,#950);
#802=AXIS2_PLACEMENT_3D('',#1137,#951,#952);
#803=AXIS2_PLACEMENT_3D('',#1139,#953,#954);
#804=AXIS2_PLACEMENT_3D('',#1140,#955,#956);
#805=AXIS2_PLACEMENT_3D('',#1142,#957,#958);
#806=AXIS2_PLACEMENT_3D('',#1143,#959,#960);
#807=AXIS2_PLACEMENT_3D('',#1144,#961,#962);
#808=AXIS2_PLACEMENT_3D('',#1165,#973,#974);
#809=AXIS2_PLACEMENT_3D('',#1186,#985,#986);
#810=AXIS2_PLACEMENT_3D('',#1189,#989,#990);
#811=AXIS2_PLACEMENT_3D('',#1192,#993,#994);
#812=AXIS2_PLACEMENT_3D('',#1194,#996,#997);
#813=AXIS2_PLACEMENT_3D('',#1197,#1000,#1001);
#814=AXIS2_PLACEMENT_3D('',#1198,#1002,#1003);
#815=AXIS2_PLACEMENT_3D('',#1200,#1005,#1006);
#816=AXIS2_PLACEMENT_3D('',#1203,#1009,#1010);
#817=AXIS2_PLACEMENT_3D('',#1204,#1011,#1012);
#818=AXIS2_PLACEMENT_3D('',#1205,#1013,#1014);
#819=DIRECTION('',(0.,0.,1.));
#820=DIRECTION('',(1.,0.,0.));
#821=DIRECTION('',(0.,0.,-1.));
#822=DIRECTION('',(-1.,0.,0.));
#823=DIRECTION('',(0.,0.,1.));
#824=DIRECTION('',(1.,0.,0.));
#825=DIRECTION('',(0.,0.,1.));
#826=DIRECTION('',(1.,0.,0.));
#827=DIRECTION('',(0.,0.,1.));
#828=DIRECTION('',(1.,0.,0.));
#829=DIRECTION('',(0.,0.,1.));
#830=DIRECTION('',(1.,0.,0.));
#831=DIRECTION('',(0.,0.,1.));
#832=DIRECTION('',(1.,0.,0.));
#833=DIRECTION('',(0.,0.,1.));
#834=DIRECTION('',(1.,0.,0.));
#835=DIRECTION('',(0.,0.,1.));
#836=DIRECTION('',(1.,0.,0.));
#837=DIRECTION('',(0.,0.,1.));
#838=DIRECTION('',(1.,0.,0.));
#839=DIRECTION('',(0.,0.,-1.));
#840=DIRECTION('',(-1.,0.,0.));
#841=DIRECTION('',(0.,0.,1.));
#842=DIRECTION('',(1.,0.,0.));
#843=DIRECTION('',(0.,0.,1.));
#844=DIRECTION('',(1.,0.,0.));
#845=DIRECTION('',(0.,0.,1.));
#846=DIRECTION('',(1.,0.,0.));
#847=DIRECTION('',(0.,0.,1.));
#848=DIRECTION('',(1.,0.,0.));
#849=DIRECTION('',(0.,0.,1.));
#850=DIRECTION('',(1.,0.,0.));
#851=DIRECTION('',(0.,0.,1.));
#852=DIRECTION('',(1.,0.,0.));
#853=DIRECTION('',(0.,0.,1.));
#854=DIRECTION('',(1.,0.,0.));
#855=DIRECTION('',(0.,0.,1.));
#856=DIRECTION('',(1.,0.,0.));
#857=DIRECTION('',(0.,0.,-1.));
#858=DIRECTION('',(-1.,0.,0.));
#859=DIRECTION('',(0.,-1.,0.));
#860=DIRECTION('',(-1.,0.,0.));
#861=DIRECTION('',(0.,-1.,0.));
#862=DIRECTION('',(-1.,0.,0.));
#863=DIRECTION('',(0.,0.,-1.));
#864=DIRECTION('',(-1.,0.,0.));
#865=DIRECTION('',(-1.,0.,0.));
#866=DIRECTION('',(0.,-1.,0.));
#867=DIRECTION('',(-1.,0.,0.));
#868=DIRECTION('',(0.,-1.,0.));
#869=DIRECTION('',(1.,0.,0.));
#870=DIRECTION('',(0.,1.,0.));
#871=DIRECTION('',(0.,0.999999999695801,2.46657345375711E-5));
#872=DIRECTION('',(0.,0.,-1.));
#873=DIRECTION('',(0.,1.,0.));
#874=DIRECTION('',(0.,0.,-1.));
#875=DIRECTION('',(1.,0.,0.));
#876=DIRECTION('',(0.,0.,-1.));
#877=DIRECTION('',(0.,1.,0.));
#878=DIRECTION('',(0.,0.,1.));
#879=DIRECTION('',(0.,0.,-1.));
#880=DIRECTION('',(0.,0.,-1.));
#881=DIRECTION('',(1.,0.,0.));
#882=DIRECTION('',(1.,0.,0.));
#883=DIRECTION('',(0.,0.,-1.));
#884=DIRECTION('',(0.,1.,0.));
#885=DIRECTION('',(0.,0.,1.));
#886=DIRECTION('',(0.,0.,-1.));
#887=DIRECTION('',(0.,0.,1.));
#888=DIRECTION('',(1.,0.,0.));
#889=DIRECTION('',(1.,0.,0.));
#890=DIRECTION('',(0.,0.,-1.));
#891=DIRECTION('',(-1.,0.,0.));
#892=DIRECTION('',(0.,0.,1.));
#893=DIRECTION('',(1.,0.,0.));
#894=DIRECTION('',(0.,0.,-1.));
#895=DIRECTION('',(1.,0.,0.));
#896=DIRECTION('',(0.,1.,0.));
#897=DIRECTION('',(0.,0.,-1.));
#898=DIRECTION('',(-1.,0.,0.));
#899=DIRECTION('',(0.,1.,0.));
#900=DIRECTION('',(1.,0.,0.));
#901=DIRECTION('',(0.,1.,0.));
#902=DIRECTION('',(0.,2.46657345375711E-5,-0.999999999695801));
#903=DIRECTION('',(0.,0.999999999695801,2.46657345375711E-5));
#904=DIRECTION('',(0.,0.999999999695801,2.46657345375711E-5));
#905=DIRECTION('',(1.,0.,0.));
#906=DIRECTION('',(0.,1.,0.));
#907=DIRECTION('',(0.,0.,1.));
#908=DIRECTION('',(1.,0.,0.));
#909=DIRECTION('',(0.,0.,-1.));
#910=DIRECTION('',(-1.,0.,0.));
#911=DIRECTION('',(0.,0.,1.));
#912=DIRECTION('',(1.,0.,0.));
#913=DIRECTION('',(0.,0.,1.));
#914=DIRECTION('',(1.,0.,0.));
#915=DIRECTION('',(0.,0.,1.));
#916=DIRECTION('',(1.,0.,0.));
#917=DIRECTION('',(0.,0.,1.));
#918=DIRECTION('',(1.,0.,0.));
#919=DIRECTION('',(0.,0.,1.));
#920=DIRECTION('',(1.,0.,0.));
#921=DIRECTION('',(0.,0.,1.));
#922=DIRECTION('',(1.,0.,0.));
#923=DIRECTION('',(0.,0.,-1.));
#924=DIRECTION('',(-1.,0.,0.));
#925=DIRECTION('',(0.,0.,1.));
#926=DIRECTION('',(1.,0.,0.));
#927=DIRECTION('',(0.,0.,1.));
#928=DIRECTION('',(1.,0.,0.));
#929=DIRECTION('',(0.,1.,0.));
#930=DIRECTION('',(0.,0.,1.));
#931=DIRECTION('',(1.,0.,0.));
#932=DIRECTION('',(0.,0.,-1.));
#933=DIRECTION('',(1.,0.,0.));
#934=DIRECTION('',(0.,0.,-1.));
#935=DIRECTION('',(1.,0.,0.));
#936=DIRECTION('',(0.,0.,-1.));
#937=DIRECTION('',(0.,-1.,0.));
#938=DIRECTION('',(0.,0.,-1.));
#939=DIRECTION('',(0.,-1.,0.));
#940=DIRECTION('',(0.,1.,0.));
#941=DIRECTION('',(0.,0.,1.));
#942=DIRECTION('',(1.,0.,0.));
#943=DIRECTION('',(0.,0.,-1.));
#944=DIRECTION('',(1.,0.,0.));
#945=DIRECTION('',(1.,0.,0.));
#946=DIRECTION('',(0.,0.,-1.));
#947=DIRECTION('',(0.,-1.,0.));
#948=DIRECTION('',(0.,-1.,0.));
#949=DIRECTION('',(0.,0.,1.));
#950=DIRECTION('',(1.,0.,0.));
#951=DIRECTION('',(0.,0.,1.));
#952=DIRECTION('',(1.,0.,0.));
#953=DIRECTION('',(0.,0.,1.));
#954=DIRECTION('',(1.,0.,0.));
#955=DIRECTION('',(0.,0.,1.));
#956=DIRECTION('',(1.,0.,0.));
#957=DIRECTION('',(0.,0.,1.));
#958=DIRECTION('',(1.,0.,0.));
#959=DIRECTION('',(0.,0.,1.));
#960=DIRECTION('',(1.,0.,0.));
#961=DIRECTION('',(1.,0.,0.));
#962=DIRECTION('',(0.,0.,-1.));
#963=DIRECTION('',(0.,-1.,0.));
#964=DIRECTION('',(0.,0.707106781186548,-0.707106781186548));
#965=DIRECTION('',(0.,0.,-1.));
#966=DIRECTION('',(0.,-1.,0.));
#967=DIRECTION('',(0.,0.,-1.));
#968=DIRECTION('',(0.,-1.,0.));
#969=DIRECTION('',(0.,0.,-1.));
#970=DIRECTION('',(0.,1.,0.));
#971=DIRECTION('',(0.,0.,-1.));
#972=DIRECTION('',(0.,-0.707106781186548,-0.707106781186548));
#973=DIRECTION('',(1.,0.,0.));
#974=DIRECTION('',(0.,0.,-1.));
#975=DIRECTION('',(0.,0.,-1.));
#976=DIRECTION('',(0.,-0.707106781186548,0.707106781186548));
#977=DIRECTION('',(0.,-1.,0.));
#978=DIRECTION('',(0.,0.707106781186548,0.707106781186548));
#979=DIRECTION('',(0.,0.,-1.));
#980=DIRECTION('',(0.,-1.,0.));
#981=DIRECTION('',(0.,0.,-1.));
#982=DIRECTION('',(0.,-1.,0.));
#983=DIRECTION('',(0.,0.,-1.));
#984=DIRECTION('',(0.,1.,0.));
#985=DIRECTION('',(0.,0.,1.));
#986=DIRECTION('',(1.,0.,0.));
#987=DIRECTION('',(1.,0.,0.));
#988=DIRECTION('',(1.,0.,0.));
#989=DIRECTION('',(0.,0.,1.));
#990=DIRECTION('',(1.,0.,0.));
#991=DIRECTION('',(-1.,0.,0.));
#992=DIRECTION('',(1.,0.,0.));
#993=DIRECTION('',(0.,-1.,0.));
#994=DIRECTION('',(0.,0.,-1.));
#995=DIRECTION('',(-1.,0.,0.));
#996=DIRECTION('',(0.,1.,0.));
#997=DIRECTION('',(0.,0.,1.));
#998=DIRECTION('',(-1.,0.,0.));
#999=DIRECTION('',(1.,0.,0.));
#1000=DIRECTION('',(0.,0.,1.));
#1001=DIRECTION('',(1.,0.,0.));
#1002=DIRECTION('',(0.,-1.,0.));
#1003=DIRECTION('',(0.,0.,-1.));
#1004=DIRECTION('',(-1.,0.,0.));
#1005=DIRECTION('',(0.,1.,0.));
#1006=DIRECTION('',(0.,0.,1.));
#1007=DIRECTION('',(1.,0.,0.));
#1008=DIRECTION('',(1.,0.,0.));
#1009=DIRECTION('',(0.,0.,1.));
#1010=DIRECTION('',(1.,0.,0.));
#1011=DIRECTION('',(0.,0.707106781186548,0.707106781186548));
#1012=DIRECTION('',(1.,0.,0.));
#1013=DIRECTION('',(0.,0.707106781186548,-0.707106781186548));
#1014=DIRECTION('',(-1.,0.,0.));
#1015=CARTESIAN_POINT('',(0.,0.,0.));
#1016=CARTESIAN_POINT('',(0.0190824544485861,-0.0431228202451798,0.00635));
#1017=CARTESIAN_POINT('',(0.0190824544485861,-0.0431228202451798,0.00635));
#1018=CARTESIAN_POINT('',(0.0317795781230629,-0.0431228202451798,0.00635));
#1019=CARTESIAN_POINT('',(0.0190824544485861,-0.0431228202451798,0.));
#1020=CARTESIAN_POINT('',(0.0317795781230629,-0.0431228202451798,0.));
#1021=CARTESIAN_POINT('',(0.0190824544485861,-0.0431228202451798,0.00635));
#1022=CARTESIAN_POINT('',(0.0190824544485861,-0.0431228202451798,0.00635));
#1023=CARTESIAN_POINT('',(0.0231464544485861,-0.0431228202451798,0.00635));
#1024=CARTESIAN_POINT('',(0.0190824544485861,-0.0431228202451798,0.));
#1025=CARTESIAN_POINT('',(0.0190824544485861,-0.0431228202451798,0.));
#1026=CARTESIAN_POINT('',(0.0231464544485861,-0.0431228202451798,0.));
#1027=CARTESIAN_POINT('',(0.0190824544485861,-0.0431228202451798,-0.01905));
#1028=CARTESIAN_POINT('',(0.,0.,0.));
#1029=CARTESIAN_POINT('',(0.0478836910449925,-0.0410741353311555,0.00635));
#1030=CARTESIAN_POINT('',(0.0478836910449925,-0.0410741353311555,0.00635));
#1031=CARTESIAN_POINT('',(0.0605878031149226,-0.0410741353311555,0.00635));
#1032=CARTESIAN_POINT('',(0.0478836910449925,-0.0410741353311555,0.));
#1033=CARTESIAN_POINT('',(0.0605878031149226,-0.0410741353311555,0.));
#1034=CARTESIAN_POINT('',(0.0478836910449925,-0.0410741353311555,0.00635));
#1035=CARTESIAN_POINT('',(0.0478836910449925,-0.0410741353311555,0.00635));
#1036=CARTESIAN_POINT('',(0.0519476910449925,-0.0410741353311555,0.00635));
#1037=CARTESIAN_POINT('',(0.0478836910449925,-0.0410741353311555,0.));
#1038=CARTESIAN_POINT('',(0.0478836910449925,-0.0410741353311555,0.));
#1039=CARTESIAN_POINT('',(0.0519476910449925,-0.0410741353311555,0.));
#1040=CARTESIAN_POINT('',(0.0478836910449925,-0.0410741353311555,-0.01905));
#1041=CARTESIAN_POINT('',(0.,0.,0.));
#1042=CARTESIAN_POINT('',(0.0521011230412345,0.0460957859187995,0.));
#1043=CARTESIAN_POINT('',(0.0279711230412345,0.0460957859187995,0.));
#1044=CARTESIAN_POINT('',(0.0279711230412345,0.0588580941311719,0.));
#1045=CARTESIAN_POINT('',(0.0279711230412345,0.0333334777064271,0.));
#1046=CARTESIAN_POINT('',(0.0521011230412345,0.0588580941311719,0.));
#1047=CARTESIAN_POINT('',(0.0267011230412345,0.0588580941311719,0.));
#1048=CARTESIAN_POINT('',(0.0267011230412345,0.0460957859187995,0.));
#1049=CARTESIAN_POINT('',(0.0267011230412345,0.0333334777064271,0.));
#1050=CARTESIAN_POINT('',(0.0521011230412345,0.0333334777064271,0.));
#1051=CARTESIAN_POINT('',(0.0521011230412345,0.0460957859187995,0.00635));
#1052=CARTESIAN_POINT('',(0.0521011230412345,0.0588580941311719,0.00635));
#1053=CARTESIAN_POINT('',(0.0279711230412345,0.0588580941311719,0.00635));
#1054=CARTESIAN_POINT('',(0.0267011230412345,0.0588580941311719,0.00635));
#1055=CARTESIAN_POINT('',(0.0279711230412345,0.0460957859187995,0.00635));
#1056=CARTESIAN_POINT('',(0.0279711230412345,0.0333334777064271,0.00635));
#1057=CARTESIAN_POINT('',(0.0521011230412345,0.0333334777064271,0.00635));
#1058=CARTESIAN_POINT('',(0.0267011230412345,0.0333334777064271,0.00635));
#1059=CARTESIAN_POINT('',(0.0267011230412345,0.0460957859187995,0.00635));
#1060=CARTESIAN_POINT('',(0.0521011230412345,0.0460957859187995,0.00338560421055967));
#1061=CARTESIAN_POINT('',(0.0521011230412345,0.0460957859187995,-0.00647668520829345));
#1062=CARTESIAN_POINT('',(0.0521011230412345,0.0333334777064271,-0.006477));
#1063=CARTESIAN_POINT('',(0.0521011230412345,0.0588580941311719,-0.0064763704165869));
#1064=CARTESIAN_POINT('',(0.0521011230412345,0.0333334777064271,0.00635));
#1065=CARTESIAN_POINT('',(0.0521011230412345,0.0333334777064271,0.0128165679052472));
#1066=CARTESIAN_POINT('',(0.0521011230412345,0.0460957859187995,0.0128165679052472));
#1067=CARTESIAN_POINT('',(0.0521011230412345,0.0588580941311719,0.0128165679052472));
#1068=CARTESIAN_POINT('',(0.0521011230412345,0.0588580941311719,0.00635));
#1069=CARTESIAN_POINT('',(0.0521011230412345,0.0460957859187995,0.00338560421055967));
#1070=CARTESIAN_POINT('',(0.0521011230412345,0.0460957859187995,-0.0156888120248431));
#1071=CARTESIAN_POINT('',(0.0521011230412345,0.0588580941311719,0.00635));
#1072=CARTESIAN_POINT('',(0.0267011230412345,0.0588580941311719,0.00635));
#1073=CARTESIAN_POINT('',(0.0279711230412345,0.0588580941311719,-0.00323818520829345));
#1074=CARTESIAN_POINT('',(0.0279711230412345,0.0588580941311719,-0.0064763704165869));
#1075=CARTESIAN_POINT('',(0.0279711230412345,0.0588580941311719,-0.0064763704165869));
#1076=CARTESIAN_POINT('',(0.0279711230412345,0.0588580941311719,0.0128165679052472));
#1077=CARTESIAN_POINT('',(0.0279711230412345,0.0588580941311719,0.0128165679052472));
#1078=CARTESIAN_POINT('',(0.0279711230412345,0.0588580941311719,0.00958328395262361));
#1079=CARTESIAN_POINT('',(0.0521011230412345,0.0333334777064271,0.00635));
#1080=CARTESIAN_POINT('',(0.0267011230412345,0.0333334777064271,0.00635));
#1081=CARTESIAN_POINT('',(0.0279711230412345,0.0333334777064271,0.00958328395262361));
#1082=CARTESIAN_POINT('',(0.0279711230412345,0.0333334777064271,0.0128165679052472));
#1083=CARTESIAN_POINT('',(0.0279711230412345,0.0333334777064271,0.0128165679052472));
#1084=CARTESIAN_POINT('',(0.0279711230412345,0.0333334777064271,-0.006477));
#1085=CARTESIAN_POINT('',(0.0279711230412345,0.0333334777064271,-0.006477));
#1086=CARTESIAN_POINT('',(0.0279711230412345,0.0333334777064271,-0.0032385));
#1087=CARTESIAN_POINT('',(0.0521011230412345,0.0460957859187995,0.00338560421055967));
#1088=CARTESIAN_POINT('',(0.0267011230412345,0.0460957859187995,0.00338560421055967));
#1089=CARTESIAN_POINT('',(0.0267011230412345,0.0460957859187995,-0.0156888120248431));
#1090=CARTESIAN_POINT('',(0.0267011230412345,0.0460957859187995,0.00338560421055967));
#1091=CARTESIAN_POINT('',(0.0279711230412345,0.0460957859187995,0.0128165679052472));
#1092=CARTESIAN_POINT('',(0.0279711230412345,0.0460957859187995,0.0128165679052472));
#1093=CARTESIAN_POINT('',(0.0279711230412345,0.0460957859187995,0.00338560421055967));
#1094=CARTESIAN_POINT('',(0.0279711230412345,0.0460957859187995,-0.00647668520829345));
#1095=CARTESIAN_POINT('',(0.0279711230412345,0.0460957859187995,-0.00647668520829345));
#1096=CARTESIAN_POINT('',(0.0279711230412345,0.0460957859187995,0.00338560421055967));
#1097=CARTESIAN_POINT('',(0.,0.,0.));
#1098=CARTESIAN_POINT('',(0.031879374845873,-0.00924146382364923,0.01905));
#1099=CARTESIAN_POINT('',(0.031879374845873,-0.00924146382364923,0.01825625));
#1100=CARTESIAN_POINT('',(0.0356854763045888,-0.00924146382364923,0.01825625));
#1101=CARTESIAN_POINT('',(0.031879374845873,-0.00924146382364923,0.00079375));
#1102=CARTESIAN_POINT('',(0.0356854763045888,-0.00924146382364923,0.00079375));
#1103=CARTESIAN_POINT('',(0.031879374845873,-0.00924146382364923,0.01905));
#1104=CARTESIAN_POINT('',(0.031879374845873,-0.00924146382364923,0.01905));
#1105=CARTESIAN_POINT('',(0.0348917263045888,-0.00924146382364923,0.01905));
#1106=CARTESIAN_POINT('',(0.031879374845873,-0.00924146382364923,0.));
#1107=CARTESIAN_POINT('',(0.031879374845873,-0.00924146382364923,0.));
#1108=CARTESIAN_POINT('',(0.0348917263045888,-0.00924146382364923,0.));
#1109=CARTESIAN_POINT('',(0.031879374845873,-0.00924146382364923,0.01905));
#1110=CARTESIAN_POINT('',(0.031879374845873,-0.00924146382364923,0.00079375));
#1111=CARTESIAN_POINT('',(0.,0.,0.));
#1112=CARTESIAN_POINT('',(-0.0182503846906795,0.0588580941311719,0.00635));
#1113=CARTESIAN_POINT('',(-0.0182503846906795,0.0588580941311719,0.));
#1114=CARTESIAN_POINT('',(-0.0632018924225934,0.0588580941311719,0.));
#1115=CARTESIAN_POINT('',(0.0267011230412345,0.0588580941311719,0.));
#1116=CARTESIAN_POINT('',(-0.0632018924225934,0.0588580941311719,0.00635));
#1117=CARTESIAN_POINT('',(-0.0632018924225934,0.0588580941311719,0.00635));
#1118=CARTESIAN_POINT('',(-0.0182503846906795,0.0588580941311719,0.00635));
#1119=CARTESIAN_POINT('',(0.0267011230412345,0.0588580941311719,0.00635));
#1120=CARTESIAN_POINT('',(0.0267011230412345,0.0588580941311719,0.00635));
#1121=CARTESIAN_POINT('',(-0.0632018924225934,0.0460957859187995,0.00635));
#1122=CARTESIAN_POINT('',(-0.0632018924225934,0.0460957859187995,0.));
#1123=CARTESIAN_POINT('',(-0.0632018924225934,0.0333334777064271,0.));
#1124=CARTESIAN_POINT('',(-0.0632018924225934,0.0333334777064271,0.00635));
#1125=CARTESIAN_POINT('',(-0.0632018924225934,0.0333334777064271,0.00635));
#1126=CARTESIAN_POINT('',(-0.0632018924225934,0.0460957859187995,0.00635));
#1127=CARTESIAN_POINT('',(-0.0182503846906795,0.0333334777064271,0.00635));
#1128=CARTESIAN_POINT('',(-0.0182503846906795,0.0333334777064271,0.));
#1129=CARTESIAN_POINT('',(0.0267011230412345,0.0333334777064271,0.));
#1130=CARTESIAN_POINT('',(0.0267011230412345,0.0333334777064271,0.00635));
#1131=CARTESIAN_POINT('',(0.0267011230412345,0.0333334777064271,0.00635));
#1132=CARTESIAN_POINT('',(-0.0182503846906795,0.0333334777064271,0.00635));
#1133=CARTESIAN_POINT('',(0.0267011230412345,0.0460957859187995,0.00635));
#1134=CARTESIAN_POINT('',(0.0267011230412345,0.0460957859187995,0.));
#1135=CARTESIAN_POINT('',(0.0267011230412345,0.0460957859187995,0.00635));
#1136=CARTESIAN_POINT('',(-0.0182503846906795,0.0460957859187995,0.00635));
#1137=CARTESIAN_POINT('',(-0.0505928434431553,0.0476511940360069,0.00635));
#1138=CARTESIAN_POINT('',(-0.046767456724848,0.0476511940360069,0.00635));
#1139=CARTESIAN_POINT('',(-0.0182503846906795,0.0460957859187995,0.));
#1140=CARTESIAN_POINT('',(-0.0505928434431553,0.0476511940360069,0.));
#1141=CARTESIAN_POINT('',(-0.046767456724848,0.0476511940360069,0.));
#1142=CARTESIAN_POINT('',(-0.0505928434431553,0.0476511940360069,-0.01905));
#1143=CARTESIAN_POINT('',(0.,0.,0.));
#1144=CARTESIAN_POINT('',(-0.0524071864783764,-0.0381847377866507,0.00635));
#1145=CARTESIAN_POINT('',(-0.0524071864783764,-0.0381847377866507,0.));
#1146=CARTESIAN_POINT('',(-0.0524071864783764,-0.0159899901092053,0.));
#1147=CARTESIAN_POINT('',(-0.0524071864783764,-0.0603907326431243,0.));
#1148=CARTESIAN_POINT('',(-0.0524071864783764,-0.0619782326431243,0.0015875));
#1149=CARTESIAN_POINT('',(-0.0524071864783764,-0.0619782326431243,0.0015875));
#1150=CARTESIAN_POINT('',(-0.0524071864783764,-0.0619782326431243,0.0508));
#1151=CARTESIAN_POINT('',(-0.0524071864783764,-0.0619782326431243,0.0508));
#1152=CARTESIAN_POINT('',(-0.0524071864783764,-0.0588037411526426,0.0508));
#1153=CARTESIAN_POINT('',(-0.0524071864783764,-0.0556292496621609,0.0508));
#1154=CARTESIAN_POINT('',(-0.0524071864783764,-0.0556292496621609,0.0508));
#1155=CARTESIAN_POINT('',(-0.0524071864783764,-0.0556292496621609,0.00635));
#1156=CARTESIAN_POINT('',(-0.0524071864783764,-0.0381847377866507,0.00635));
#1157=CARTESIAN_POINT('',(-0.0524071864783764,-0.0207402259111404,0.00635));
#1158=CARTESIAN_POINT('',(-0.0524071864783764,-0.0207402259111404,0.0508));
#1159=CARTESIAN_POINT('',(-0.0524071864783764,-0.0207402259111404,0.0508));
#1160=CARTESIAN_POINT('',(-0.0524071864783764,-0.0175713580101729,0.0508));
#1161=CARTESIAN_POINT('',(-0.0524071864783764,-0.0144024901092052,0.0508));
#1162=CARTESIAN_POINT('',(-0.0524071864783764,-0.0144024901092052,0.0508));
#1163=CARTESIAN_POINT('',(-0.0524071864783764,-0.0144024901092052,0.0015875));
#1164=CARTESIAN_POINT('',(-0.0524071864783764,-0.0159899901092053,0.));
#1165=CARTESIAN_POINT('',(-0.00159546872600913,-0.0381847377866507,0.00635));
#1166=CARTESIAN_POINT('',(-0.00159546872600913,-0.0619782326431243,0.0508));
#1167=CARTESIAN_POINT('',(-0.00159546872600913,-0.0619782326431243,0.0508));
#1168=CARTESIAN_POINT('',(-0.00159546872600913,-0.0619782326431243,0.0015875));
#1169=CARTESIAN_POINT('',(-0.00159546872600913,-0.0524627352148875,-0.00792799742823684));
#1170=CARTESIAN_POINT('',(-0.00159546872600913,-0.0603907326431243,0.));
#1171=CARTESIAN_POINT('',(-0.00159546872600913,-0.0381847377866507,0.));
#1172=CARTESIAN_POINT('',(-0.00159546872600913,-0.0159899901092053,0.));
#1173=CARTESIAN_POINT('',(-0.00159546872600913,-0.023912363947928,-0.00792237383872271));
#1174=CARTESIAN_POINT('',(-0.00159546872600913,-0.0144024901092052,0.0015875));
#1175=CARTESIAN_POINT('',(-0.00159546872600913,-0.0144024901092052,0.0508));
#1176=CARTESIAN_POINT('',(-0.00159546872600913,-0.0144024901092052,0.0508));
#1177=CARTESIAN_POINT('',(-0.00159546872600913,-0.0175713580101729,0.0508));
#1178=CARTESIAN_POINT('',(-0.00159546872600913,-0.0207402259111404,0.0508));
#1179=CARTESIAN_POINT('',(-0.00159546872600913,-0.0207402259111404,0.0508));
#1180=CARTESIAN_POINT('',(-0.00159546872600913,-0.0207402259111404,0.00635));
#1181=CARTESIAN_POINT('',(-0.00159546872600913,-0.0381847377866507,0.00635));
#1182=CARTESIAN_POINT('',(-0.00159546872600913,-0.0556292496621609,0.00635));
#1183=CARTESIAN_POINT('',(-0.00159546872600913,-0.0556292496621609,0.0508));
#1184=CARTESIAN_POINT('',(-0.00159546872600913,-0.0556292496621609,0.0508));
#1185=CARTESIAN_POINT('',(-0.00159546872600913,-0.0588037411526426,0.0508));
#1186=CARTESIAN_POINT('',(-0.0270013276021927,-0.0381847377866507,0.00635));
#1187=CARTESIAN_POINT('',(-0.0270013276021927,-0.0207402259111404,0.00635));
#1188=CARTESIAN_POINT('',(-0.0270013276021927,-0.0556292496621609,0.00635));
#1189=CARTESIAN_POINT('',(-0.0270013276021927,-0.0381847377866507,0.));
#1190=CARTESIAN_POINT('',(-0.0270013276021927,-0.0603907326431243,0.));
#1191=CARTESIAN_POINT('',(-0.00159546872600913,-0.0159899901092053,0.));
#1192=CARTESIAN_POINT('',(-0.0270013276021927,-0.0207402259111404,0.0508));
#1193=CARTESIAN_POINT('',(-0.0270013276021927,-0.0207402259111404,0.0508));
#1194=CARTESIAN_POINT('',(-0.0270013276021927,-0.0144024901092052,0.0508));
#1195=CARTESIAN_POINT('',(-0.0524071864783764,-0.0144024901092052,0.0015875));
#1196=CARTESIAN_POINT('',(-0.0270013276021927,-0.0144024901092052,0.0508));
#1197=CARTESIAN_POINT('',(-0.0270013276021927,-0.0175713580101729,0.0508));
#1198=CARTESIAN_POINT('',(-0.0270013276021927,-0.0556292496621609,0.0508));
#1199=CARTESIAN_POINT('',(-0.0270013276021927,-0.0556292496621609,0.0508));
#1200=CARTESIAN_POINT('',(-0.0270013276021927,-0.0619782326431243,0.0508));
#1201=CARTESIAN_POINT('',(-0.0270013276021927,-0.0619782326431243,0.0015875));
#1202=CARTESIAN_POINT('',(-0.0270013276021927,-0.0619782326431243,0.0508));
#1203=CARTESIAN_POINT('',(-0.0270013276021927,-0.0588037411526426,0.0508));
#1204=CARTESIAN_POINT('',(-0.0270013276021927,-0.0619782326431243,0.0015875));
#1205=CARTESIAN_POINT('',(-0.0270013276021927,-0.0159899901092053,0.));
#1206=MECHANICAL_DESIGN_GEOMETRIC_PRESENTATION_REPRESENTATION('',(#688),
#1212);
#1207=MECHANICAL_DESIGN_GEOMETRIC_PRESENTATION_REPRESENTATION('',(#689),
#1213);
#1208=MECHANICAL_DESIGN_GEOMETRIC_PRESENTATION_REPRESENTATION('',(#690),
#1214);
#1209=MECHANICAL_DESIGN_GEOMETRIC_PRESENTATION_REPRESENTATION('',(#691),
#1215);
#1210=MECHANICAL_DESIGN_GEOMETRIC_PRESENTATION_REPRESENTATION('',(#692),
#1216);
#1211=MECHANICAL_DESIGN_GEOMETRIC_PRESENTATION_REPRESENTATION('',(#693),
#1217);
#1212=(
GEOMETRIC_REPRESENTATION_CONTEXT(3)
GLOBAL_UNCERTAINTY_ASSIGNED_CONTEXT((#1218))
GLOBAL_UNIT_ASSIGNED_CONTEXT((#1236,#1230,#1224))
REPRESENTATION_CONTEXT('Part 3','TOP_LEVEL_ASSEMBLY_PART')
);
#1213=(
GEOMETRIC_REPRESENTATION_CONTEXT(3)
GLOBAL_UNCERTAINTY_ASSIGNED_CONTEXT((#1219))
GLOBAL_UNIT_ASSIGNED_CONTEXT((#1237,#1231,#1225))
REPRESENTATION_CONTEXT('Part 2','TOP_LEVEL_ASSEMBLY_PART')
);
#1214=(
GEOMETRIC_REPRESENTATION_CONTEXT(3)
GLOBAL_UNCERTAINTY_ASSIGNED_CONTEXT((#1220))
GLOBAL_UNIT_ASSIGNED_CONTEXT((#1238,#1232,#1226))
REPRESENTATION_CONTEXT('Part 6','TOP_LEVEL_ASSEMBLY_PART')
);
#1215=(
GEOMETRIC_REPRESENTATION_CONTEXT(3)
GLOBAL_UNCERTAINTY_ASSIGNED_CONTEXT((#1221))
GLOBAL_UNIT_ASSIGNED_CONTEXT((#1239,#1233,#1227))
REPRESENTATION_CONTEXT('Part 5','TOP_LEVEL_ASSEMBLY_PART')
);
#1216=(
GEOMETRIC_REPRESENTATION_CONTEXT(3)
GLOBAL_UNCERTAINTY_ASSIGNED_CONTEXT((#1222))
GLOBAL_UNIT_ASSIGNED_CONTEXT((#1240,#1234,#1228))
REPRESENTATION_CONTEXT('Part 4','TOP_LEVEL_ASSEMBLY_PART')
);
#1217=(
GEOMETRIC_REPRESENTATION_CONTEXT(3)
GLOBAL_UNCERTAINTY_ASSIGNED_CONTEXT((#1223))
GLOBAL_UNIT_ASSIGNED_CONTEXT((#1241,#1235,#1229))
REPRESENTATION_CONTEXT('Part 1','TOP_LEVEL_ASSEMBLY_PART')
);
#1218=UNCERTAINTY_MEASURE_WITH_UNIT(LENGTH_MEASURE(1.E-8),#1236,
'DISTANCE_ACCURACY_VALUE','Maximum Tolerance applied to model');
#1219=UNCERTAINTY_MEASURE_WITH_UNIT(LENGTH_MEASURE(1.E-8),#1237,
'DISTANCE_ACCURACY_VALUE','Maximum Tolerance applied to model');
#1220=UNCERTAINTY_MEASURE_WITH_UNIT(LENGTH_MEASURE(1.E-8),#1238,
'DISTANCE_ACCURACY_VALUE','Maximum Tolerance applied to model');
#1221=UNCERTAINTY_MEASURE_WITH_UNIT(LENGTH_MEASURE(1.E-8),#1239,
'DISTANCE_ACCURACY_VALUE','Maximum Tolerance applied to model');
#1222=UNCERTAINTY_MEASURE_WITH_UNIT(LENGTH_MEASURE(1.E-8),#1240,
'DISTANCE_ACCURACY_VALUE','Maximum Tolerance applied to model');
#1223=UNCERTAINTY_MEASURE_WITH_UNIT(LENGTH_MEASURE(1.E-8),#1241,
'DISTANCE_ACCURACY_VALUE','Maximum Tolerance applied to model');
#1224=(
NAMED_UNIT(*)
SI_UNIT($,.STERADIAN.)
SOLID_ANGLE_UNIT()
);
#1225=(
NAMED_UNIT(*)
SI_UNIT($,.STERADIAN.)
SOLID_ANGLE_UNIT()
);
#1226=(
NAMED_UNIT(*)
SI_UNIT($,.STERADIAN.)
SOLID_ANGLE_UNIT()
);
#1227=(
NAMED_UNIT(*)
SI_UNIT($,.STERADIAN.)
SOLID_ANGLE_UNIT()
);
#1228=(
NAMED_UNIT(*)
SI_UNIT($,.STERADIAN.)
SOLID_ANGLE_UNIT()
);
#1229=(
NAMED_UNIT(*)
SI_UNIT($,.STERADIAN.)
SOLID_ANGLE_UNIT()
);
#1230=(
NAMED_UNIT(*)
PLANE_ANGLE_UNIT()
SI_UNIT($,.RADIAN.)
);
#1231=(
NAMED_UNIT(*)
PLANE_ANGLE_UNIT()
SI_UNIT($,.RADIAN.)
);
#1232=(
NAMED_UNIT(*)
PLANE_ANGLE_UNIT()
SI_UNIT($,.RADIAN.)
);
#1233=(
NAMED_UNIT(*)
PLANE_ANGLE_UNIT()
SI_UNIT($,.RADIAN.)
);
#1234=(
NAMED_UNIT(*)
PLANE_ANGLE_UNIT()
SI_UNIT($,.RADIAN.)
);
#1235=(
NAMED_UNIT(*)
PLANE_ANGLE_UNIT()
SI_UNIT($,.RADIAN.)
);
#1236=(
LENGTH_UNIT()
NAMED_UNIT(*)
SI_UNIT($,.METRE.)
);
#1237=(
LENGTH_UNIT()
NAMED_UNIT(*)
SI_UNIT($,.METRE.)
);
#1238=(
LENGTH_UNIT()
NAMED_UNIT(*)
SI_UNIT($,.METRE.)
);
#1239=(
LENGTH_UNIT()
NAMED_UNIT(*)
SI_UNIT($,.METRE.)
);
#1240=(
LENGTH_UNIT()
NAMED_UNIT(*)
SI_UNIT($,.METRE.)
);
#1241=(
LENGTH_UNIT()
NAMED_UNIT(*)
SI_UNIT($,.METRE.)
);
#1242=PRODUCT_DEFINITION_SHAPE('','',#1248);
#1243=PRODUCT_DEFINITION_SHAPE('','',#1249);
#1244=PRODUCT_DEFINITION_SHAPE('','',#1250);
#1245=PRODUCT_DEFINITION_SHAPE('','',#1251);
#1246=PRODUCT_DEFINITION_SHAPE('','',#1252);
#1247=PRODUCT_DEFINITION_SHAPE('','',#1253);
#1248=PRODUCT_DEFINITION('','',#1260,#1254);
#1249=PRODUCT_DEFINITION('','',#1261,#1255);
#1250=PRODUCT_DEFINITION('','',#1262,#1256);
#1251=PRODUCT_DEFINITION('','',#1263,#1257);
#1252=PRODUCT_DEFINITION('','',#1264,#1258);
#1253=PRODUCT_DEFINITION('','',#1265,#1259);
#1254=PRODUCT_DEFINITION_CONTEXT('',#1296,'design');
#1255=PRODUCT_DEFINITION_CONTEXT('',#1297,'design');
#1256=PRODUCT_DEFINITION_CONTEXT('',#1298,'design');
#1257=PRODUCT_DEFINITION_CONTEXT('',#1299,'design');
#1258=PRODUCT_DEFINITION_CONTEXT('',#1300,'design');
#1259=PRODUCT_DEFINITION_CONTEXT('',#1301,'design');
#1260=PRODUCT_DEFINITION_FORMATION_WITH_SPECIFIED_SOURCE('','',#1272,
 .NOT_KNOWN.);
#1261=PRODUCT_DEFINITION_FORMATION_WITH_SPECIFIED_SOURCE('','',#1273,
 .NOT_KNOWN.);
#1262=PRODUCT_DEFINITION_FORMATION_WITH_SPECIFIED_SOURCE('','',#1274,
 .NOT_KNOWN.);
#1263=PRODUCT_DEFINITION_FORMATION_WITH_SPECIFIED_SOURCE('','',#1275,
 .NOT_KNOWN.);
#1264=PRODUCT_DEFINITION_FORMATION_WITH_SPECIFIED_SOURCE('','',#1276,
 .NOT_KNOWN.);
#1265=PRODUCT_DEFINITION_FORMATION_WITH_SPECIFIED_SOURCE('','',#1277,
 .NOT_KNOWN.);
#1266=PRODUCT_RELATED_PRODUCT_CATEGORY('','',(#1272));
#1267=PRODUCT_RELATED_PRODUCT_CATEGORY('','',(#1273));
#1268=PRODUCT_RELATED_PRODUCT_CATEGORY('','',(#1274));
#1269=PRODUCT_RELATED_PRODUCT_CATEGORY('','',(#1275));
#1270=PRODUCT_RELATED_PRODUCT_CATEGORY('','',(#1276));
#1271=PRODUCT_RELATED_PRODUCT_CATEGORY('','',(#1277));
#1272=PRODUCT('Part 3','Part 3','Part 3',(#1284));
#1273=PRODUCT('Part 2','Part 2','Part 2',(#1285));
#1274=PRODUCT('Part 6','Part 6','Part 6',(#1286));
#1275=PRODUCT('Part 5','Part 5','Part 5',(#1287));
#1276=PRODUCT('Part 4','Part 4','Part 4',(#1288));
#1277=PRODUCT('Part 1','Part 1','Part 1',(#1289));
#1278=PRODUCT_CATEGORY('','');
#1279=PRODUCT_CATEGORY('','');
#1280=PRODUCT_CATEGORY('','');
#1281=PRODUCT_CATEGORY('','');
#1282=PRODUCT_CATEGORY('','');
#1283=PRODUCT_CATEGORY('','');
#1284=PRODUCT_CONTEXT('',#1296,'mechanical');
#1285=PRODUCT_CONTEXT('',#1297,'mechanical');
#1286=PRODUCT_CONTEXT('',#1298,'mechanical');
#1287=PRODUCT_CONTEXT('',#1299,'mechanical');
#1288=PRODUCT_CONTEXT('',#1300,'mechanical');
#1289=PRODUCT_CONTEXT('',#1301,'mechanical');
#1290=APPLICATION_PROTOCOL_DEFINITION('international standard',
'ap242_managed_model_based_3d_engineering',2020,#1296);
#1291=APPLICATION_PROTOCOL_DEFINITION('international standard',
'ap242_managed_model_based_3d_engineering',2020,#1297);
#1292=APPLICATION_PROTOCOL_DEFINITION('international standard',
'ap242_managed_model_based_3d_engineering',2020,#1298);
#1293=APPLICATION_PROTOCOL_DEFINITION('international standard',
'ap242_managed_model_based_3d_engineering',2020,#1299);
#1294=APPLICATION_PROTOCOL_DEFINITION('international standard',
'ap242_managed_model_based_3d_engineering',2020,#1300);
#1295=APPLICATION_PROTOCOL_DEFINITION('international standard',
'ap242_managed_model_based_3d_engineering',2020,#1301);
#1296=APPLICATION_CONTEXT('managed model based 3d engineering');
#1297=APPLICATION_CONTEXT('managed model based 3d engineering');
#1298=APPLICATION_CONTEXT('managed model based 3d engineering');
#1299=APPLICATION_CONTEXT('managed model based 3d engineering');
#1300=APPLICATION_CONTEXT('managed model based 3d engineering');
#1301=APPLICATION_CONTEXT('managed model based 3d engineering');
ENDSEC;
END-ISO-10303-21;
